HIERARCHY
ROOT hips
{
	OFFSET -0.003675 0.299928 -0.021708
	CHANNELS 6 Xposition Yposition Zposition Xrotation Yrotation Zrotation
	JOINT LowerBack
	{
		OFFSET 0.000919 0.177588 0.009275
		CHANNELS 3 Xrotation Yrotation Zrotation
		JOINT spine
		{
			OFFSET 0.000919 0.177588 0.009275
			CHANNELS 3 Xrotation Yrotation Zrotation
			JOINT chest
			{
				OFFSET 0.000456 0.100015 0.004638
				CHANNELS 3 Xrotation Yrotation Zrotation
				JOINT neck
				{
					OFFSET 0.000456 0.100015 0.004638
					CHANNELS 3 Xrotation Yrotation Zrotation
					JOINT head
					{
						OFFSET 0.000924 0.155147 0.009274
						CHANNELS 6 Xposition Yposition Zposition Xrotation Yrotation Zrotation
						End Site
						{
							OFFSET 0.000000 0.153400 0.000000
						}
					}
				}
				JOINT shoulder.L
				{
					OFFSET 0.019937 0.078966 0.057518
					CHANNELS 6 Xposition Yposition Zposition Yrotation Xrotation Zrotation
					JOINT upper_arm.L
					{
						OFFSET 0.177024 -0.020465 -0.095062
						CHANNELS 6 Xposition Yposition Zposition Xrotation Yrotation Zrotation
						JOINT forearm.L
						{
							OFFSET 0.247100 -0.135500 -0.061800
							CHANNELS 3 Xrotation Yrotation Zrotation
							JOINT hand.L
							{
								OFFSET 0.217000 -0.143000 0.039300
								CHANNELS 3 Xrotation Yrotation Zrotation
								JOINT palm.01.L
								{
									OFFSET 0.021770 -0.038291 0.012954
									CHANNELS 6 Xposition Yposition Zposition Yrotation Xrotation Zrotation
									JOINT f_index.01.L
									{
										OFFSET 0.053215 -0.044137 0.008236
										CHANNELS 3 Xrotation Yrotation Zrotation
										JOINT f_index.02.L
										{
											OFFSET 0.036108 -0.024723 -0.010656
											CHANNELS 3 Xrotation Yrotation Zrotation
											JOINT f_index.03.L
											{
												OFFSET 0.021342 -0.014948 -0.010846
												CHANNELS 3 Xrotation Yrotation Zrotation
												End Site
												{
													OFFSET 0.015600 -0.009860 -0.013421
												}
											}
										}
									}
									JOINT thumb.01.L
									{
										OFFSET -0.009090 -0.002348 -0.024223
										CHANNELS 6 Xposition Yposition Zposition Xrotation Yrotation Zrotation
										JOINT thumb.02.L
										{
											OFFSET 0.019713 -0.035076 -0.011120
											CHANNELS 3 Xrotation Yrotation Zrotation
											JOINT thumb.03.L
											{
												OFFSET 0.024877 -0.021748 -0.005176
												CHANNELS 3 Xrotation Yrotation Zrotation
												End Site
												{
													OFFSET 0.016125 -0.013029 -0.001569
												}
											}
										}
									}
								}
								JOINT palm.02.L
								{
									OFFSET 0.032823 -0.025104 0.012281
									CHANNELS 6 Xposition Yposition Zposition Yrotation Xrotation Zrotation
									JOINT f_middle.01.L
									{
										OFFSET 0.055723 -0.038469 0.008037
										CHANNELS 3 Xrotation Yrotation Zrotation
										JOINT f_middle.02.L
										{
											OFFSET 0.038167 -0.027473 -0.015582
											CHANNELS 3 Xrotation Yrotation Zrotation
											JOINT f_middle.03.L
											{
												OFFSET 0.021707 -0.016587 -0.017037
												CHANNELS 3 Xrotation Yrotation Zrotation
												End Site
												{
													OFFSET 0.014112 -0.010584 -0.014294
												}
											}
										}
									}
								}
								JOINT palm.03.L
								{
									OFFSET 0.039230 -0.011402 0.008390
									CHANNELS 6 Xposition Yposition Zposition Yrotation Xrotation Zrotation
									JOINT f_ring.01.L
									{
										OFFSET 0.061796 -0.031470 0.007910
										CHANNELS 3 Xrotation Yrotation Zrotation
										JOINT f_ring.02.L
										{
											OFFSET 0.033092 -0.023401 -0.019127
											CHANNELS 3 Xrotation Yrotation Zrotation
											JOINT f_ring.03.L
											{
												OFFSET 0.021392 -0.015362 -0.017824
												CHANNELS 3 Xrotation Yrotation Zrotation
												End Site
												{
													OFFSET 0.008670 -0.007297 -0.014686
												}
											}
										}
									}
								}
								JOINT palm.04.L
								{
									OFFSET 0.043417 0.002450 0.002889
									CHANNELS 6 Xposition Yposition Zposition Yrotation Xrotation Zrotation
									JOINT f_pinky.01.L
									{
										OFFSET 0.069986 -0.026156 0.003627
										CHANNELS 3 Xrotation Yrotation Zrotation
										JOINT f_pinky.02.L
										{
											OFFSET 0.018520 -0.012813 -0.016429
											CHANNELS 3 Xrotation Yrotation Zrotation
											JOINT f_pinky.03.L
											{
												OFFSET 0.013822 -0.009796 -0.014947
												CHANNELS 3 Xrotation Yrotation Zrotation
												End Site
												{
													OFFSET 0.007238 -0.006103 -0.011657
												}
											}
										}
									}
								}
							}
						}
					}
				}
				JOINT shoulder.R
				{
					OFFSET -0.016662 0.078957 0.057696
					CHANNELS 6 Xposition Yposition Zposition Yrotation Xrotation Zrotation
					JOINT upper_arm.R
					{
						OFFSET -0.176972 -0.020537 -0.095144
						CHANNELS 6 Xposition Yposition Zposition Xrotation Yrotation Zrotation
						JOINT forearm.R
						{
							OFFSET -0.247100 -0.135500 -0.061800
							CHANNELS 3 Xrotation Yrotation Zrotation
							JOINT hand.R
							{
								OFFSET -0.217000 -0.143000 0.039300
								CHANNELS 3 Xrotation Yrotation Zrotation
								JOINT palm.01.R
								{
									OFFSET -0.021773 -0.038278 0.012988
									CHANNELS 6 Xposition Yposition Zposition Yrotation Xrotation Zrotation
									JOINT f_index.01.R
									{
										OFFSET -0.053212 -0.044139 0.008249
										CHANNELS 3 Xrotation Yrotation Zrotation
										JOINT f_index.02.R
										{
											OFFSET -0.036049 -0.024835 -0.010634
											CHANNELS 3 Xrotation Yrotation Zrotation
											JOINT f_index.03.R
											{
												OFFSET -0.021371 -0.014881 -0.010866
												CHANNELS 3 Xrotation Yrotation Zrotation
												End Site
												{
													OFFSET -0.015584 -0.009883 -0.013422
												}
											}
										}
									}
									JOINT thumb.01.R
									{
										OFFSET 0.009113 -0.002381 -0.024211
										CHANNELS 6 Xposition Yposition Zposition Xrotation Yrotation Zrotation
										JOINT thumb.02.R
										{
											OFFSET -0.019694 -0.035097 -0.011088
											CHANNELS 3 Xrotation Yrotation Zrotation
											JOINT thumb.03.R
											{
												OFFSET -0.024867 -0.021762 -0.005168
												CHANNELS 3 Xrotation Yrotation Zrotation
												End Site
												{
													OFFSET -0.016120 -0.013036 -0.001565
												}
											}
										}
									}
								}
								JOINT palm.02.R
								{
									OFFSET -0.032828 -0.025095 0.012286
									CHANNELS 6 Xposition Yposition Zposition Yrotation Xrotation Zrotation
									JOINT f_middle.01.R
									{
										OFFSET -0.055721 -0.038472 0.008040
										CHANNELS 3 Xrotation Yrotation Zrotation
										JOINT f_middle.02.R
										{
											OFFSET -0.038101 -0.027593 -0.015557
											CHANNELS 3 Xrotation Yrotation Zrotation
											JOINT f_middle.03.R
											{
												OFFSET -0.021730 -0.016530 -0.017054
												CHANNELS 3 Xrotation Yrotation Zrotation
												End Site
												{
													OFFSET -0.014096 -0.010608 -0.014293
												}
											}
										}
									}
								}
								JOINT palm.03.R
								{
									OFFSET -0.039192 -0.011488 0.008390
									CHANNELS 6 Xposition Yposition Zposition Yrotation Xrotation Zrotation
									JOINT f_ring.01.R
									{
										OFFSET -0.061839 -0.031387 0.007876
										CHANNELS 3 Xrotation Yrotation Zrotation
										JOINT f_ring.02.R
										{
											OFFSET -0.033068 -0.023437 -0.019125
											CHANNELS 3 Xrotation Yrotation Zrotation
											JOINT f_ring.03.R
											{
												OFFSET -0.021371 -0.015393 -0.017822
												CHANNELS 3 Xrotation Yrotation Zrotation
												End Site
												{
													OFFSET -0.008654 -0.007321 -0.014684
												}
											}
										}
									}
								}
								JOINT palm.04.R
								{
									OFFSET -0.043421 0.002443 0.002845
									CHANNELS 6 Xposition Yposition Zposition Yrotation Xrotation Zrotation
									JOINT f_pinky.01.R
									{
										OFFSET -0.069983 -0.026169 0.003599
										CHANNELS 3 Xrotation Yrotation Zrotation
										JOINT f_pinky.02.R
										{
											OFFSET -0.018501 -0.012842 -0.016428
											CHANNELS 3 Xrotation Yrotation Zrotation
											JOINT f_pinky.03.R
											{
												OFFSET -0.013806 -0.009821 -0.014946
												CHANNELS 3 Xrotation Yrotation Zrotation
												End Site
												{
													OFFSET -0.007226 -0.006121 -0.011655
												}
											}
										}
									}
								}
							}
						}
					}
				}
			}
		}
	}
	JOINT pelvis.L
	{
		OFFSET 0.000000 0.000000 0.000000
		CHANNELS 6 Xposition Yposition Zposition Xrotation Yrotation Zrotation
		JOINT thigh.L
		{
			OFFSET 0.101675 0.001054 -0.000000
			CHANNELS 3 Xrotation Yrotation Zrotation
			JOINT shin.L
			{
				OFFSET 0.000000 -0.534800 0.041000
				CHANNELS 3 Xrotation Yrotation Zrotation
				JOINT foot.L
				{
					OFFSET 0.000000 -0.452000 -0.044800
					CHANNELS 3 Xrotation Yrotation Zrotation
					JOINT toe.L
					{
						OFFSET -0.000000 -0.068500 0.109600
						CHANNELS 3 Xrotation Yrotation Zrotation
						End Site
						{
							OFFSET -0.000000 0.000000 0.067200
						}
					}
				}
				JOINT heel.L
				{
					OFFSET 0.000000 -0.452000 -0.044800
					CHANNELS 3 Xrotation Yrotation Zrotation
					JOINT heel.02.L
					{
						OFFSET -0.038000 -0.085200 0.016200
						CHANNELS 6 Xposition Yposition Zposition Xrotation Yrotation Zrotation
						End Site
						{
							OFFSET 0.080000 -0.000000 0.000000
						}
					}
				}
			}
		}
	}
	JOINT pelvis.R
	{
		OFFSET 0.000000 0.000000 0.000000
		CHANNELS 6 Xposition Yposition Zposition Xrotation Yrotation Zrotation
		JOINT thigh.R
		{
			OFFSET -0.094325 0.001054 0.000000
			CHANNELS 3 Xrotation Yrotation Zrotation
			JOINT shin.R
			{
				OFFSET 0.000000 -0.534800 0.041000
				CHANNELS 3 Xrotation Yrotation Zrotation
				JOINT foot.R
				{
					OFFSET 0.000000 -0.452000 -0.044800
					CHANNELS 3 Xrotation Yrotation Zrotation
					JOINT toe.R
					{
						OFFSET -0.000000 -0.068500 0.109600
						CHANNELS 3 Xrotation Yrotation Zrotation
						End Site
						{
							OFFSET -0.000000 0.000000 0.067200
						}
					}
				}
				JOINT heel.R
				{
					OFFSET 0.000000 -0.452000 -0.044800
					CHANNELS 3 Xrotation Yrotation Zrotation
					JOINT heel.02.R
					{
						OFFSET 0.038000 -0.085200 0.016200
						CHANNELS 6 Xposition Yposition Zposition Xrotation Yrotation Zrotation
						End Site
						{
							OFFSET -0.080000 0.000000 -0.000000
						}
					}
				}
			}
		}
	}
}
MOTION
Frames: 4
Frame Time: 0.041667
-0.023489 0.241490 -0.046694 24.826436 35.880702 -48.313166 -0.000000 -0.000003 -0.000002 -0.000004 -0.000003 -0.000001 -0.000001 -0.000003 -0.000000 -0.000002 -0.000001 -0.000001 0.000924 0.155147 0.009274 -2.527756 -0.025283 28.256616 0.019937 0.078966 0.057518 45.440880 16.289602 42.374364 0.177025 -0.020465 -0.095062 -40.263624 -7.350640 -33.266296 -53.900626 15.743699 -76.221762 0.000002 0.000003 0.000001 0.021770 -0.038291 0.012954 0.000000 0.000002 0.000001 -0.000000 -0.000001 0.000007 0.000000 -0.000001 0.000003 -0.000002 0.000005 -0.000002 -0.009090 -0.002348 -0.024223 0.000001 -0.000002 0.000008 -0.000000 -0.000003 0.000005 -0.000002 0.000001 0.000001 0.032823 -0.025104 0.012281 0.000001 0.000003 0.000007 -0.000001 0.000003 -0.000003 -0.000005 -0.000004 -0.000000 -0.000001 -0.000002 0.000006 0.039230 -0.011402 0.008390 0.000001 0.000001 0.000006 0.000001 -0.000003 0.000005 -0.000001 0.000003 -0.000002 0.000004 -0.000003 0.000003 0.043417 0.002450 0.002889 -0.000000 0.000002 -0.000000 0.000000 -0.000008 0.000002 -0.000001 -0.000003 0.000001 -0.000002 -0.000001 -0.000001 -0.016662 0.078957 0.057696 31.625347 12.653681 -69.222041 -0.176972 -0.020537 -0.095144 -30.731818 -41.493187 111.678039 -28.990844 -0.044774 67.313194 -0.000001 0.000001 -0.000002 -0.021773 -0.038278 0.012988 0.000002 -0.000005 -0.000002 0.000001 -0.000001 -0.000001 -0.000000 0.000001 -0.000003 -0.000002 0.000005 -0.000002 0.009114 -0.002381 -0.024212 0.000002 -0.000003 0.000000 -0.000001 -0.000004 0.000000 0.000002 -0.000001 -0.000008 -0.032828 -0.025095 0.012286 0.000003 -0.000002 -0.000001 0.000003 0.000001 -0.000003 -0.000000 0.000001 0.000001 -0.000003 0.000003 -0.000002 -0.039192 -0.011488 0.008390 0.000003 -0.000003 0.000001 -0.000003 0.000003 0.000000 0.000001 -0.000001 -0.000003 -0.000003 0.000000 0.000003 -0.043421 0.002442 0.002844 0.000002 0.000001 0.000004 -0.000006 0.000004 0.000005 -0.000005 -0.000006 0.000004 0.000002 0.000000 0.000004 0.000000 0.000000 0.000000 -1.553532 -1.341618 15.435830 168.916958 -1.324411 -18.646509 123.481487 0.090626 -0.911935 -0.000002 0.000002 0.000001 0.000006 0.000002 -0.000000 0.000000 0.000003 0.000004 -0.038000 -0.085200 0.016200 0.000002 0.000002 0.000001 0.000000 0.000000 0.000000 -1.559088 -1.343213 16.669878 -115.601225 -1.948424 -30.910718 138.404153 -4.310112 49.504166 -0.000003 -0.000001 -0.000000 0.000001 0.000000 0.000003 0.000003 -0.000002 0.000001 0.038000 -0.085200 0.016200 0.000002 -0.000000 0.000001 
-0.021447 0.236125 -0.047561 17.787833 32.670980 -44.386121 0.000001 0.000002 0.000002 -0.000000 0.000003 0.000001 0.000003 -0.000001 -0.000003 0.000001 -0.000002 -0.000005 0.000924 0.155147 0.009274 12.469633 -0.066419 32.686584 0.019937 0.078966 0.057518 45.133624 15.651396 41.201921 0.177024 -0.020465 -0.095062 -44.597269 -16.415180 -27.886110 -78.426131 7.470405 -57.559992 0.000001 0.000003 0.000001 0.021770 -0.038291 0.012954 0.000001 0.000000 0.000003 -0.000001 -0.000000 0.000001 0.000003 -0.000002 0.000003 -0.000000 0.000002 0.000005 -0.009090 -0.002348 -0.024223 0.000002 0.000002 0.000001 0.000001 0.000003 -0.000000 0.000003 -0.000003 -0.000002 0.032823 -0.025104 0.012281 -0.000001 -0.000000 0.000005 -0.000001 0.000004 -0.000005 -0.000000 -0.000007 0.000003 -0.000001 -0.000002 0.000004 0.039230 -0.011402 0.008390 -0.000001 -0.000000 0.000004 -0.000002 0.000000 -0.000000 -0.000001 0.000003 0.000003 0.000001 -0.000005 0.000003 0.043417 0.002450 0.002889 0.000001 0.000001 -0.000000 -0.000002 -0.000004 -0.000002 -0.000001 0.000001 -0.000005 0.000001 0.000001 -0.000000 -0.016662 0.078957 0.057696 33.529989 12.883104 -75.212609 -0.176972 -0.020537 -0.095144 -74.951395 -64.880035 75.934150 -27.814815 3.393929 58.524326 0.000002 0.000006 0.000001 -0.021773 -0.038278 0.012988 -0.000001 0.000001 0.000002 -0.000001 0.000003 0.000002 0.000001 0.000001 -0.000008 -0.000003 -0.000005 0.000006 0.009114 -0.002381 -0.024211 0.000000 -0.000001 0.000002 0.000001 0.000001 -0.000008 0.000002 0.000002 -0.000001 -0.032828 -0.025095 0.012286 -0.000001 0.000001 -0.000003 0.000001 0.000006 -0.000001 0.000004 -0.000000 -0.000001 -0.000002 0.000003 -0.000000 -0.039192 -0.011488 0.008390 -0.000002 -0.000000 0.000003 -0.000001 0.000002 0.000000 -0.000001 0.000007 -0.000001 0.000002 0.000005 0.000002 -0.043421 0.002443 0.002844 -0.000003 -0.000000 0.000002 -0.000002 0.000008 -0.000004 0.000003 0.000001 -0.000002 -0.000000 -0.000005 -0.000000 0.000000 0.000000 0.000000 -1.674792 -1.655636 18.540685 172.338691 -1.392212 -19.347891 120.871563 -0.131035 1.324588 0.000000 0.000002 0.000003 -0.000005 0.000003 0.000003 0.000002 0.000003 0.000003 -0.038000 -0.085200 0.016200 -0.000002 0.000000 -0.000002 0.000000 0.000000 -0.000000 -1.688536 -1.660390 19.774473 -110.695298 -1.657341 -26.775197 136.996997 -4.063606 45.792020 -0.000005 0.000000 0.000002 0.000004 -0.000001 -0.000001 0.000003 0.000002 0.000001 0.038000 -0.085200 0.016200 0.000002 -0.000001 0.000001 
-0.025431 0.246809 -0.015146 88.799788 48.208988 -101.340616 -0.000001 -0.000001 -0.000000 -0.000003 -0.000000 0.000001 0.000000 0.000001 0.000001 0.000000 -0.000000 0.000001 0.000924 0.155147 0.009274 -23.258942 0.020942 38.364537 0.019937 0.078966 0.057518 4.641895 7.823326 60.094955 0.177024 -0.020465 -0.095062 -57.899131 8.765165 -49.295780 -37.881773 3.381016 -71.218540 -0.000002 0.000001 0.000003 0.021770 -0.038291 0.012954 0.000004 -0.000002 -0.000000 -0.000001 -0.000000 -0.000000 -0.000000 -0.000003 0.000005 0.000000 0.000002 0.000002 -0.009090 -0.002348 -0.024223 0.000001 -0.000001 -0.000001 -0.000000 -0.000002 0.000001 -0.000000 -0.000001 -0.000004 0.032823 -0.025104 0.012281 0.000001 -0.000000 0.000002 -0.000005 0.000003 -0.000003 -0.000005 -0.000001 0.000005 -0.000002 -0.000003 -0.000001 0.039230 -0.011402 0.008390 0.000003 0.000000 0.000003 -0.000002 0.000000 -0.000000 -0.000002 0.000006 0.000005 -0.000002 0.000005 0.000000 0.043417 0.002450 0.002889 0.000003 -0.000001 -0.000002 -0.000000 -0.000006 0.000003 -0.000001 -0.000000 0.000001 -0.000002 0.000000 -0.000002 -0.016662 0.078957 0.057696 -27.805039 10.866776 -51.651567 -0.176972 -0.020537 -0.095144 -70.102295 -39.785705 65.581257 -10.770186 4.912518 74.549589 -0.000000 0.000003 0.000001 -0.021773 -0.038278 0.012988 -0.000003 -0.000001 -0.000002 -0.000002 0.000004 -0.000001 0.000001 -0.000001 -0.000008 0.000001 0.000002 0.000003 0.009114 -0.002381 -0.024212 0.000002 -0.000001 -0.000003 0.000000 0.000000 -0.000001 -0.000001 -0.000002 -0.000003 -0.032828 -0.025095 0.012286 0.000001 0.000001 -0.000003 0.000003 0.000005 -0.000003 -0.000001 -0.000004 0.000003 -0.000002 0.000003 -0.000002 -0.039192 -0.011488 0.008390 -0.000002 0.000002 0.000003 -0.000001 -0.000001 -0.000002 0.000001 -0.000003 -0.000002 -0.000001 -0.000003 -0.000000 -0.043421 0.002443 0.002845 -0.000004 0.000002 0.000000 -0.000004 0.000003 0.000001 0.000001 -0.000007 -0.000001 -0.000001 -0.000001 -0.000001 0.000000 0.000000 0.000000 -1.882929 1.281563 -15.662257 181.148269 0.819022 10.490160 152.913537 1.382242 -14.087571 0.000000 0.000004 -0.000002 -0.000000 -0.000002 -0.000002 0.000002 0.000001 -0.000001 -0.038000 -0.085200 0.016200 0.000002 0.000001 -0.000002 -0.000000 0.000000 0.000000 -1.797961 1.258690 -14.429949 -215.733137 0.691037 12.204883 184.432306 -2.149717 22.258343 -0.000002 0.000001 -0.000001 0.000001 -0.000002 0.000000 0.000005 0.000001 -0.000000 0.038000 -0.085200 0.016200 -0.000000 0.000000 0.000000 
-0.025366 0.246089 -0.019426 68.311693 46.607681 -87.345340 -0.000002 -0.000002 -0.000002 -0.000001 0.000000 0.000000 -0.000000 -0.000001 -0.000002 -0.000001 -0.000002 -0.000001 0.000924 0.155148 0.009274 -7.414596 -0.052030 41.977205 0.019937 0.078966 0.057518 8.696586 7.399512 57.842365 0.177024 -0.020465 -0.095062 -39.064656 4.756018 -45.111736 -35.788730 6.054228 -79.683746 -0.000003 0.000000 -0.000004 0.021770 -0.038291 0.012954 0.000000 -0.000000 -0.000009 -0.000000 0.000002 -0.000004 -0.000002 0.000001 0.000008 0.000003 0.000004 0.000002 -0.009090 -0.002348 -0.024224 -0.000002 -0.000001 0.000002 -0.000002 -0.000000 0.000001 -0.000003 -0.000000 0.000001 0.032823 -0.025104 0.012281 -0.000002 0.000000 0.000002 -0.000001 0.000001 -0.000000 -0.000003 -0.000002 0.000006 -0.000001 0.000003 0.000003 0.039230 -0.011402 0.008390 0.000000 -0.000001 0.000003 0.000004 0.000005 0.000001 -0.000001 0.000005 -0.000002 0.000003 0.000000 0.000004 0.043417 0.002450 0.002889 -0.000002 0.000000 -0.000003 -0.000002 -0.000002 0.000001 -0.000003 0.000004 0.000001 0.000001 -0.000006 -0.000001 -0.016662 0.078957 0.057696 -21.384469 8.905695 -50.316443 -0.176972 -0.020537 -0.095144 -56.823052 -46.756466 83.299348 9.151961 13.315024 77.470376 0.000000 0.000002 0.000005 -0.021773 -0.038278 0.012988 -0.000000 -0.000001 -0.000002 -0.000001 0.000002 -0.000001 -0.000000 -0.000000 -0.000001 -0.000002 0.000002 0.000003 0.009114 -0.002381 -0.024212 0.000002 -0.000000 0.000001 0.000002 0.000001 0.000000 0.000002 0.000000 -0.000003 -0.032828 -0.025095 0.012286 -0.000001 -0.000001 0.000001 -0.000000 0.000005 -0.000003 0.000003 -0.000003 0.000001 -0.000001 0.000006 -0.000003 -0.039192 -0.011488 0.008390 -0.000003 -0.000001 0.000001 -0.000001 0.000003 -0.000003 0.000003 -0.000001 -0.000004 -0.000003 0.000000 0.000003 -0.043421 0.002443 0.002844 -0.000002 -0.000000 0.000000 -0.000002 0.000002 -0.000002 -0.000001 -0.000003 0.000002 -0.000002 -0.000001 -0.000001 0.000000 0.000000 -0.000000 -1.996244 1.506163 -17.712712 162.570127 -0.331406 -5.896821 155.891281 1.963096 -20.229200 -0.000003 -0.000003 -0.000001 0.000000 -0.000001 0.000000 -0.000002 -0.000002 0.000002 -0.038000 -0.085200 0.016200 0.000004 0.000000 0.000003 0.000000 0.000000 -0.000000 -1.899288 1.476306 -16.481057 -218.398509 1.230641 19.764312 172.849576 -1.866931 19.203731 -0.000003 -0.000000 0.000001 0.000001 0.000000 0.000002 0.000003 -0.000003 0.000003 0.038000 -0.085200 0.016200 -0.000001 0.000002 -0.000002 
